<?xml version="1.0" encoding="iso-8859-1"?>
<!-- Uploaded to: SVG Repo, www.svgrepo.com, Generator: SVG Repo Mixer Tools -->
<svg height="800px" width="800px" version="1.1" id="Layer_1" xmlns="http://www.w3.org/2000/svg" xmlns:xlink="http://www.w3.org/1999/xlink" 
	 viewBox="0 0 511.999 511.999" xml:space="preserve">
<g>
	<circle style="fill:#4EB79B;" cx="256.226" cy="91.098" r="56.413"/>
	<circle style="fill:#4EB79B;" cx="65.559" cy="421.354" r="56.413"/>
</g>
<path style="fill:#40A084;" d="M65.552,477.783c-31.158,0-56.413-25.266-56.413-56.425s25.254-56.413,56.413-56.413
	c-14.041,0-25.433,25.254-25.433,56.413S51.511,477.783,65.552,477.783z"/>
<circle style="fill:#4EB79B;" cx="446.906" cy="421.354" r="56.413"/>
<g>
	<path style="fill:#40A084;" d="M446.896,477.783c-31.158,0-56.413-25.266-56.413-56.425s25.254-56.413,56.413-56.413
		c-14.041,0-25.433,25.254-25.433,56.413S432.856,477.783,446.896,477.783z"/>
	<path style="fill:#40A084;" d="M256.224,147.529c-31.158,0-56.413-25.266-56.413-56.425s25.254-56.413,56.413-56.413
		c-14.041,0-25.433,25.254-25.433,56.413S242.183,147.529,256.224,147.529z"/>
</g>
<circle style="fill:#F7A872;" cx="256.226" cy="310.869" r="101.576"/>
<path style="fill:#E09461;" d="M256.225,412.45c-56.092,0-101.576-45.484-101.576-101.576c0-56.104,45.484-101.576,101.576-101.576
	c-31.479,0-57.007,45.472-57.007,101.576C199.219,366.966,224.746,412.45,256.225,412.45z"/>
<path d="M450.244,355.895c-20.004-1.073-38.191,6.925-50.857,20.227l-41.818-22.033c5.73-13.344,8.909-28.033,8.909-43.45
	c0-13.487-2.403-26.663-7.145-39.165c-1.618-4.264-6.151-6.884-10.573-5.77c-5.284,1.33-8.071,6.903-6.183,11.834
	c4.036,10.552,6.083,21.688,6.083,33.1c0,12.422-2.474,24.272-6.927,35.108l-25.281-13.32c-4.354-2.294-9.741-0.624-12.034,3.729
	l0,0c-2.294,4.354-0.624,9.742,3.729,12.034l25.254,13.306c-16.586,25.161-45.083,41.809-77.406,41.809
	c-32.325,0-60.82-16.648-77.407-41.808l25.253-13.307c4.352-2.294,6.023-7.682,3.729-12.034l0,0
	c-2.294-4.354-7.682-6.023-12.034-3.729l-25.279,13.32c-4.453-10.836-6.928-22.686-6.928-35.109
	c0-51.097,41.57-92.666,92.667-92.666c26.757,0,52.209,11.57,69.826,31.744c3.476,3.977,9.705,4.124,13.354,0.078
	c3.046-3.376,2.878-8.599-0.121-12.015c-19.024-21.669-45.65-34.961-74.145-37.265v-44.94c32.756-4.489,57.858-33.333,56.353-67.629
	c-1.471-33.509-28.626-60.754-62.13-62.328c-37.44-1.758-68.46,28.193-68.46,65.254c0,32.998,24.599,60.342,56.419,64.703v44.941
	c-56.774,4.55-101.581,52.2-101.581,110.125c0,15.419,3.18,30.108,8.91,43.453l-41.809,22.029
	c-12.655-13.29-30.822-21.286-50.806-20.228c-33.275,1.759-60.174,28.825-61.732,62.11c-1.753,37.436,28.196,68.452,65.253,68.452
	c8.663,0,17.078-1.67,25.018-4.964c4.273-1.772,6.808-6.424,5.5-10.861c-1.534-5.203-7.178-7.772-12.029-5.723
	c-6.157,2.604-12.723,3.858-19.498,3.719c-23.819-0.486-43.905-18.957-46.26-42.666c-2.816-28.357,19.478-52.342,47.268-52.342
	c26.196,0,47.508,21.312,47.508,47.509c0,7.981-2.012,15.864-5.822,22.811c-2.291,4.178-1.018,9.593,3.048,12.077
	c4.356,2.661,10.004,1.137,12.45-3.281c5.326-9.621,8.142-20.55,8.142-31.606c0-10.973-2.732-21.314-7.531-30.403l39.629-20.881
	c19.627,30.804,54.088,51.281,93.244,51.281s73.617-20.477,93.244-51.283l39.637,20.883c-5.438,10.298-8.223,22.204-7.385,34.813
	c2.16,32.54,28.496,58.772,61.044,60.789c39.327,2.436,71.854-30.146,69.325-69.49C509.753,384.032,483.067,357.655,450.244,355.895
	z M208.49,90.871c0-26.196,21.312-47.509,47.509-47.509c26.196,0,47.508,21.312,47.508,47.509c0,26.196-21.312,47.508-47.508,47.508
	C229.802,138.38,208.49,117.068,208.49,90.871z M446.672,468.636c-26.198,0-47.509-21.312-47.509-47.509
	c0-26.198,21.312-47.509,47.509-47.509c26.196,0,47.508,21.312,47.508,47.509C494.18,447.324,472.868,468.636,446.672,468.636z"/>
</svg>